# xmcd
#
# Track frame offsets: 
#        150
#        13582
#        25780
#        41530
#        53850
#        67040
#        79367
#        92957
#        107137
#        120692
#        132037
#        144877
#        157657
#        172220
#        184357
#        198435
#        212810
#        227030
#        241397
#        255372
#        269370
#        282617
#
# Disc length: 3940 seconds
#
# Revision: 0
# Processed by: cddbd v1.5.2PL0 Copyright (c) Steve Scherf et al.
# Submitted via: ExactAudioCopyFreeDBPlugin 1.0
#
DISCID=3f0f6216
DTITLE=Bobby Leecan and Robert Cooksey - Complete Recorded Works Vol. 
DTITLE=2 (1927-1928)
DYEAR=1994
DGENRE=Blues
TTITLE0=Wash-board Cut Out
TTITLE1=Shortnin' Bread
TTITLE2=Midnight Suzie
TTITLE3=Apaloosa Blues
TTITLE4=Ain't She Sweet
TTITLE5=Ain't She Sweet
TTITLE6=Don't You Let Your Head Hang Down
TTITLE7=Royal Palm Special
TTITLE8=Blue Harmonica
TTITLE9=Macon Georgia Cut Out
TTITLE10=Nobody Knows You When You're Down and Out
TTITLE11=Memphis Shake
TTITLE12=My Old Daddy's Got a Brand New Way to Love
TTITLE13=Kansas City Shuffle
TTITLE14=Black Cat Bone
TTITLE15=Mean Old Bed Bug Blues
TTITLE16=Mean Old Bed Bug Blues
TTITLE17=Cold Mornin' Shout
TTITLE18=Suitcase Breakdown
TTITLE19=Dallas Blues
TTITLE20=Dallas Blues
TTITLE21=El Watson's Fox Chase
EXTD=
EXTT0=
EXTT1=
EXTT2=
EXTT3=
EXTT4=
EXTT5=
EXTT6=
EXTT7=
EXTT8=
EXTT9=
EXTT10=
EXTT11=
EXTT12=
EXTT13=
EXTT14=
EXTT15=
EXTT16=
EXTT17=
EXTT18=
EXTT19=
EXTT20=
EXTT21=
PLAYORDER=
